<svg xmlns="http://www.w3.org/2000/svg" width="760" height="420" viewBox="0 0 760 420" role="img" aria-label="LVGL align positions">
  <rect width="760" height="420" fill="#f8fafc"/>
  <rect x="70" y="45" width="620" height="330" rx="8" fill="#ffffff" stroke="#334155" stroke-width="3"/>
  <g font-family="Arial, sans-serif" font-size="16" text-anchor="middle" fill="#0f172a">
    <text x="380" y="28" font-size="20" font-weight="700">父对象内对齐位置</text>
    <g fill="#2563eb" stroke="#1e40af" stroke-width="2">
      <rect x="94" y="69" width="92" height="48" rx="4"/>
      <rect x="334" y="69" width="92" height="48" rx="4"/>
      <rect x="574" y="69" width="92" height="48" rx="4"/>
      <rect x="94" y="186" width="92" height="48" rx="4"/>
      <rect x="334" y="186" width="92" height="48" rx="4"/>
      <rect x="574" y="186" width="92" height="48" rx="4"/>
      <rect x="94" y="303" width="92" height="48" rx="4"/>
      <rect x="334" y="303" width="92" height="48" rx="4"/>
      <rect x="574" y="303" width="92" height="48" rx="4"/>
    </g>
    <g fill="#ffffff" font-size="13" font-weight="700">
      <text x="140" y="98">TOP_LEFT</text>
      <text x="380" y="98">TOP_MID</text>
      <text x="620" y="98">TOP_RIGHT</text>
      <text x="140" y="215">LEFT_MID</text>
      <text x="380" y="215">CENTER</text>
      <text x="620" y="215">RIGHT_MID</text>
      <text x="140" y="332">BOTTOM_LEFT</text>
      <text x="380" y="332">BOTTOM_MID</text>
      <text x="620" y="332">BOTTOM_RIGHT</text>
    </g>
  </g>
</svg>
