<svg xmlns="http://www.w3.org/2000/svg" xmlns:xlink="http://www.w3.org/1999/xlink" contentStyleType="text/css" data-diagram-type="SEQUENCE" height="1457px" preserveAspectRatio="none" style="width:1521px;height:1457px;background:#FFFFFF;" version="1.1" viewBox="0 0 1521 1457" width="1521px" zoomAndPan="magnify"><defs/><g><rect fill="none" height="887.3984" style="stroke:#000000;stroke-width:1.5;" width="1279.2539" x="235.2813" y="313.8203"/><rect fill="none" height="645.4609" style="stroke:#000000;stroke-width:1.5;" width="1259.2539" x="245.2813" y="548.7578"/><rect fill="none" height="473.7578" style="stroke:#000000;stroke-width:1.5;" width="1239.2539" x="255.2813" y="713.4609"/><g><title>User</title><rect fill="#000000" fill-opacity="0.00000" height="1285.6875" width="8" x="21.2695" y="86.1172"/><line style="stroke:#181818;stroke-width:0.5;stroke-dasharray:5.0,5.0;" x1="25" x2="25" y1="86.1172" y2="1371.8047"/></g><g><title>CardReader</title><rect fill="#000000" fill-opacity="0.00000" height="1285.6875" width="8" x="149.1055" y="86.1172"/><line style="stroke:#181818;stroke-width:0.5;stroke-dasharray:5.0,5.0;" x1="152.2656" x2="152.2656" y1="86.1172" y2="1371.8047"/></g><g><title>ATMController</title><rect fill="#000000" fill-opacity="0.00000" height="1285.6875" width="8" x="324.6523" y="86.1172"/><line style="stroke:#181818;stroke-width:0.5;stroke-dasharray:5.0,5.0;" x1="328.2813" x2="328.2813" y1="86.1172" y2="1371.8047"/></g><g><title>Screen</title><rect fill="#000000" fill-opacity="0.00000" height="1285.6875" width="8" x="596.3086" y="86.1172"/><line style="stroke:#181818;stroke-width:0.5;stroke-dasharray:5.0,5.0;" x1="599.6172" x2="599.6172" y1="86.1172" y2="1371.8047"/></g><g><title>CashDispenser</title><rect fill="#000000" fill-opacity="0.00000" height="1285.6875" width="8" x="702.2031" y="86.1172"/><line style="stroke:#181818;stroke-width:0.5;stroke-dasharray:5.0,5.0;" x1="706" x2="706" y1="86.1172" y2="1371.8047"/></g><g><title>RouterGateway</title><rect fill="#000000" fill-opacity="0.00000" height="1285.6875" width="8" x="841.082" y="86.1172"/><line style="stroke:#181818;stroke-width:0.5;stroke-dasharray:5.0,5.0;" x1="844.4063" x2="844.4063" y1="86.1172" y2="1371.8047"/></g><g><title>&#23545;&#24212;&#38134;&#34892; SIC</title><rect fill="#000000" fill-opacity="0.00000" height="1285.6875" width="8" x="1294.6211" y="86.1172"/><line style="stroke:#181818;stroke-width:0.5;stroke-dasharray:5.0,5.0;" x1="1297.9336" x2="1297.9336" y1="86.1172" y2="1371.8047"/></g><g><title>ReceiptPrinter</title><rect fill="#000000" fill-opacity="0.00000" height="1285.6875" width="8" x="1419.4219" y="86.1172"/><line style="stroke:#181818;stroke-width:0.5;stroke-dasharray:5.0,5.0;" x1="1423.3086" x2="1423.3086" y1="86.1172" y2="1371.8047"/></g><g class="participant participant-head" data-participant="User"><text fill="#000000" font-family="Microsoft YaHei" font-size="16" lengthAdjust="spacing" textLength="34.5391" x="5" y="81.9297">User</text><ellipse cx="25.2695" cy="13.5" fill="#E2E2F0" rx="8" ry="8" style="stroke:#181818;stroke-width:0.5;"/><path d="M25.2695,21.5 L25.2695,48.5 M12.2695,29.5 L38.2695,29.5 M25.2695,48.5 L12.2695,63.5 M25.2695,48.5 L38.2695,63.5" fill="none" style="stroke:#181818;stroke-width:0.5;"/></g><g class="participant participant-tail" data-participant="User"><text fill="#000000" font-family="Microsoft YaHei" font-size="16" lengthAdjust="spacing" textLength="34.5391" x="5" y="1387.7344">User</text><ellipse cx="25.2695" cy="1400.4219" fill="#E2E2F0" rx="8" ry="8" style="stroke:#181818;stroke-width:0.5;"/><path d="M25.2695,1408.4219 L25.2695,1435.4219 M12.2695,1416.4219 L38.2695,1416.4219 M25.2695,1435.4219 L12.2695,1450.4219 M25.2695,1435.4219 L38.2695,1450.4219" fill="none" style="stroke:#181818;stroke-width:0.5;"/></g><g class="participant participant-head" data-participant="R"><rect fill="#E2E2F0" height="35.1172" rx="2.5" ry="2.5" style="stroke:#181818;stroke-width:0.5;" width="103.6797" x="101.2656" y="50"/><text fill="#000000" font-family="Microsoft YaHei" font-size="16" lengthAdjust="spacing" textLength="89.6797" x="108.2656" y="73.9297">CardReader</text></g><g class="participant participant-tail" data-participant="R"><rect fill="#E2E2F0" height="35.1172" rx="2.5" ry="2.5" style="stroke:#181818;stroke-width:0.5;" width="103.6797" x="101.2656" y="1370.8047"/><text fill="#000000" font-family="Microsoft YaHei" font-size="16" lengthAdjust="spacing" textLength="89.6797" x="108.2656" y="1394.7344">CardReader</text></g><g class="participant participant-head" data-participant="A"><rect fill="#E2E2F0" height="35.1172" rx="2.5" ry="2.5" style="stroke:#181818;stroke-width:0.5;" width="126.7422" x="265.2813" y="50"/><text fill="#000000" font-family="Microsoft YaHei" font-size="16" lengthAdjust="spacing" textLength="112.7422" x="272.2813" y="73.9297">ATMController</text></g><g class="participant participant-tail" data-participant="A"><rect fill="#E2E2F0" height="35.1172" rx="2.5" ry="2.5" style="stroke:#181818;stroke-width:0.5;" width="126.7422" x="265.2813" y="1370.8047"/><text fill="#000000" font-family="Microsoft YaHei" font-size="16" lengthAdjust="spacing" textLength="112.7422" x="272.2813" y="1394.7344">ATMController</text></g><g class="participant participant-head" data-participant="S"><rect fill="#E2E2F0" height="35.1172" rx="2.5" ry="2.5" style="stroke:#181818;stroke-width:0.5;" width="65.3828" x="567.6172" y="50"/><text fill="#000000" font-family="Microsoft YaHei" font-size="16" lengthAdjust="spacing" textLength="51.3828" x="574.6172" y="73.9297">Screen</text></g><g class="participant participant-tail" data-participant="S"><rect fill="#E2E2F0" height="35.1172" rx="2.5" ry="2.5" style="stroke:#181818;stroke-width:0.5;" width="65.3828" x="567.6172" y="1370.8047"/><text fill="#000000" font-family="Microsoft YaHei" font-size="16" lengthAdjust="spacing" textLength="51.3828" x="574.6172" y="1394.7344">Screen</text></g><g class="participant participant-head" data-participant="D"><rect fill="#E2E2F0" height="35.1172" rx="2.5" ry="2.5" style="stroke:#181818;stroke-width:0.5;" width="126.4063" x="643" y="50"/><text fill="#000000" font-family="Microsoft YaHei" font-size="16" lengthAdjust="spacing" textLength="112.4063" x="650" y="73.9297">CashDispenser</text></g><g class="participant participant-tail" data-participant="D"><rect fill="#E2E2F0" height="35.1172" rx="2.5" ry="2.5" style="stroke:#181818;stroke-width:0.5;" width="126.4063" x="643" y="1370.8047"/><text fill="#000000" font-family="Microsoft YaHei" font-size="16" lengthAdjust="spacing" textLength="112.4063" x="650" y="1394.7344">CashDispenser</text></g><g class="participant participant-head" data-participant="G"><rect fill="#E2E2F0" height="35.1172" rx="2.5" ry="2.5" style="stroke:#181818;stroke-width:0.5;" width="131.3516" x="779.4063" y="50"/><text fill="#000000" font-family="Microsoft YaHei" font-size="16" lengthAdjust="spacing" textLength="117.3516" x="786.4063" y="73.9297">RouterGateway</text></g><g class="participant participant-tail" data-participant="G"><rect fill="#E2E2F0" height="35.1172" rx="2.5" ry="2.5" style="stroke:#181818;stroke-width:0.5;" width="131.3516" x="779.4063" y="1370.8047"/><text fill="#000000" font-family="Microsoft YaHei" font-size="16" lengthAdjust="spacing" textLength="117.3516" x="786.4063" y="1394.7344">RouterGateway</text></g><g class="participant participant-head" data-participant="B"><rect fill="#E2E2F0" height="35.1172" rx="2.5" ry="2.5" style="stroke:#181818;stroke-width:0.5;" width="107.375" x="1244.9336" y="50"/><text fill="#000000" font-family="Microsoft YaHei" font-size="16" lengthAdjust="spacing" textLength="93.375" x="1251.9336" y="73.9297">&#23545;&#24212;&#38134;&#34892; SIC</text></g><g class="participant participant-tail" data-participant="B"><rect fill="#E2E2F0" height="35.1172" rx="2.5" ry="2.5" style="stroke:#181818;stroke-width:0.5;" width="107.375" x="1244.9336" y="1370.8047"/><text fill="#000000" font-family="Microsoft YaHei" font-size="16" lengthAdjust="spacing" textLength="93.375" x="1251.9336" y="1394.7344">&#23545;&#24212;&#38134;&#34892; SIC</text></g><g class="participant participant-head" data-participant="P"><rect fill="#E2E2F0" height="35.1172" rx="2.5" ry="2.5" style="stroke:#181818;stroke-width:0.5;" width="122.2266" x="1362.3086" y="50"/><text fill="#000000" font-family="Microsoft YaHei" font-size="16" lengthAdjust="spacing" textLength="108.2266" x="1369.3086" y="73.9297">ReceiptPrinter</text></g><g class="participant participant-tail" data-participant="P"><rect fill="#E2E2F0" height="35.1172" rx="2.5" ry="2.5" style="stroke:#181818;stroke-width:0.5;" width="122.2266" x="1362.3086" y="1370.8047"/><text fill="#000000" font-family="Microsoft YaHei" font-size="16" lengthAdjust="spacing" textLength="108.2266" x="1369.3086" y="1394.7344">ReceiptPrinter</text></g><g class="message" data-participant-1="User" data-participant-2="R"><polygon fill="#181818" points="141.1055,119.2344,151.1055,123.2344,141.1055,127.2344,145.1055,123.2344" style="stroke:#181818;stroke-width:1;"/><line style="stroke:#181818;stroke-width:1;" x1="25.2695" x2="147.1055" y1="123.2344" y2="123.2344"/><text fill="#000000" font-family="Microsoft YaHei" font-size="16" lengthAdjust="spacing" textLength="89.25" x="32.2695" y="117.0469">insertCard()</text></g><g class="message" data-participant-1="R" data-participant-2="A"><polygon fill="#181818" points="316.6523,154.3516,326.6523,158.3516,316.6523,162.3516,320.6523,158.3516" style="stroke:#181818;stroke-width:1;"/><line style="stroke:#181818;stroke-width:1;" x1="153.1055" x2="322.6523" y1="158.3516" y2="158.3516"/><text fill="#000000" font-family="Microsoft YaHei" font-size="16" lengthAdjust="spacing" textLength="151.5469" x="160.1055" y="152.1641">cardRead(cardData)</text></g><g class="message" data-participant-1="A" data-participant-2="S"><polygon fill="#181818" points="588.3086,189.4688,598.3086,193.4688,588.3086,197.4688,592.3086,193.4688" style="stroke:#181818;stroke-width:1;"/><line style="stroke:#181818;stroke-width:1;" x1="328.6523" x2="594.3086" y1="193.4688" y2="193.4688"/><text fill="#000000" font-family="Microsoft YaHei" font-size="16" lengthAdjust="spacing" textLength="247.6563" x="335.6523" y="187.2813">requestCredentialsAndAmount()</text></g><g class="message" data-participant-1="S" data-participant-2="A"><polygon fill="#181818" points="339.6523,224.5859,329.6523,228.5859,339.6523,232.5859,335.6523,228.5859" style="stroke:#181818;stroke-width:1;"/><line style="stroke:#181818;stroke-width:1;stroke-dasharray:2.0,2.0;" x1="333.6523" x2="599.3086" y1="228.5859" y2="228.5859"/><text fill="#000000" font-family="Microsoft YaHei" font-size="16" lengthAdjust="spacing" textLength="151.3828" x="345.6523" y="222.3984">credentials, amount</text></g><g class="message" data-participant-1="A" data-participant-2="D"><polygon fill="#181818" points="694.2031,259.7031,704.2031,263.7031,694.2031,267.7031,698.2031,263.7031" style="stroke:#181818;stroke-width:1;"/><line style="stroke:#181818;stroke-width:1;" x1="328.6523" x2="700.2031" y1="263.7031" y2="263.7031"/><text fill="#000000" font-family="Microsoft YaHei" font-size="16" lengthAdjust="spacing" textLength="166.5938" x="335.6523" y="257.5156">canDispense(amount)</text></g><g class="message" data-participant-1="D" data-participant-2="A"><polygon fill="#181818" points="339.6523,294.8203,329.6523,298.8203,339.6523,302.8203,335.6523,298.8203" style="stroke:#181818;stroke-width:1;"/><line style="stroke:#181818;stroke-width:1;stroke-dasharray:2.0,2.0;" x1="333.6523" x2="705.2031" y1="298.8203" y2="298.8203"/><text fill="#000000" font-family="Microsoft YaHei" font-size="16" lengthAdjust="spacing" textLength="63.0156" x="345.6523" y="292.6328">possible</text></g><path d="M235.2813,313.8203 L300.8828,313.8203 L300.8828,326.9375 L290.8828,336.9375 L235.2813,336.9375 L235.2813,313.8203" fill="#EEEEEE" style="stroke:#000000;stroke-width:1.5;"/><rect fill="none" height="887.3984" style="stroke:#000000;stroke-width:1.5;" width="1279.2539" x="235.2813" y="313.8203"/><text fill="#000000" font-family="Microsoft YaHei" font-size="16" font-weight="bold" lengthAdjust="spacing" textLength="20.6016" x="250.2813" y="331.75">alt</text><text fill="#000000" font-family="Microsoft YaHei" font-size="16" font-weight="bold" lengthAdjust="spacing" textLength="132.0313" x="315.8828" y="332.75">[&#24211;&#23384;/&#38754;&#39069;&#19981;&#20801;&#35768;]</text><g class="message" data-participant-1="A" data-participant-2="S"><polygon fill="#181818" points="588.3086,366.1719,598.3086,370.1719,588.3086,374.1719,592.3086,370.1719" style="stroke:#181818;stroke-width:1;"/><line style="stroke:#181818;stroke-width:1;" x1="328.6523" x2="594.3086" y1="370.1719" y2="370.1719"/><text fill="#000000" font-family="Microsoft YaHei" font-size="16" lengthAdjust="spacing" textLength="115.2813" x="335.6523" y="363.9844">displayFailure()</text></g><line style="stroke:#000000;stroke-width:1;stroke-dasharray:2.0,2.0;" x1="235.2813" x2="1514.5352" y1="379.1719" y2="379.1719"/><text fill="#000000" font-family="Microsoft YaHei" font-size="16" font-weight="bold" lengthAdjust="spacing" textLength="92.4688" x="240.2813" y="396.1016">[&#26412;&#26426;&#21487;&#20986;&#38046;]</text><g class="message" data-participant-1="A" data-participant-2="G"><polygon fill="#181818" points="833.082,424.4063,843.082,428.4063,833.082,432.4063,837.082,428.4063" style="stroke:#181818;stroke-width:1;"/><line style="stroke:#181818;stroke-width:1;" x1="328.6523" x2="839.082" y1="428.4063" y2="428.4063"/><text fill="#000000" font-family="Microsoft YaHei" font-size="16" lengthAdjust="spacing" textLength="355.9297" x="335.6523" y="422.2188">authorize(credentials, accountId, amount, txId)</text></g><g class="message" data-participant-1="G" data-participant-2="B"><polygon fill="#181818" points="1286.6211,459.5234,1296.6211,463.5234,1286.6211,467.5234,1290.6211,463.5234" style="stroke:#181818;stroke-width:1;"/><line style="stroke:#181818;stroke-width:1;" x1="845.082" x2="1292.6211" y1="463.5234" y2="463.5234"/><text fill="#000000" font-family="Microsoft YaHei" font-size="16" lengthAdjust="spacing" textLength="429.5391" x="852.082" y="457.3359">routeAuthorization(credentials, accountId, amount, txId)</text></g><g class="message" data-participant-1="B" data-participant-2="G"><polygon fill="#181818" points="856.082,494.6406,846.082,498.6406,856.082,502.6406,852.082,498.6406" style="stroke:#181818;stroke-width:1;"/><line style="stroke:#181818;stroke-width:1;stroke-dasharray:2.0,2.0;" x1="850.082" x2="1297.6211" y1="498.6406" y2="498.6406"/><text fill="#000000" font-family="Microsoft YaHei" font-size="16" lengthAdjust="spacing" textLength="149.0234" x="862.082" y="492.4531">authorizationResult</text></g><g class="message" data-participant-1="G" data-participant-2="A"><polygon fill="#181818" points="339.6523,529.7578,329.6523,533.7578,339.6523,537.7578,335.6523,533.7578" style="stroke:#181818;stroke-width:1;"/><line style="stroke:#181818;stroke-width:1;stroke-dasharray:2.0,2.0;" x1="333.6523" x2="844.082" y1="533.7578" y2="533.7578"/><text fill="#000000" font-family="Microsoft YaHei" font-size="16" lengthAdjust="spacing" textLength="149.0234" x="345.6523" y="527.5703">authorizationResult</text></g><path d="M245.2813,548.7578 L310.8828,548.7578 L310.8828,561.875 L300.8828,571.875 L245.2813,571.875 L245.2813,548.7578" fill="#EEEEEE" style="stroke:#000000;stroke-width:1.5;"/><rect fill="none" height="645.4609" style="stroke:#000000;stroke-width:1.5;" width="1259.2539" x="245.2813" y="548.7578"/><text fill="#000000" font-family="Microsoft YaHei" font-size="16" font-weight="bold" lengthAdjust="spacing" textLength="20.6016" x="260.2813" y="566.6875">alt</text><text fill="#000000" font-family="Microsoft YaHei" font-size="16" font-weight="bold" lengthAdjust="spacing" textLength="156.4688" x="325.8828" y="567.6875">[&#35748;&#35777;&#25110;&#36164;&#37329;&#25480;&#26435;&#22833;&#36133;]</text><g class="message" data-participant-1="A" data-participant-2="S"><polygon fill="#181818" points="588.3086,601.1094,598.3086,605.1094,588.3086,609.1094,592.3086,605.1094" style="stroke:#181818;stroke-width:1;"/><line style="stroke:#181818;stroke-width:1;" x1="328.6523" x2="594.3086" y1="605.1094" y2="605.1094"/><text fill="#000000" font-family="Microsoft YaHei" font-size="16" lengthAdjust="spacing" textLength="115.2813" x="335.6523" y="598.9219">displayFailure()</text></g><line style="stroke:#000000;stroke-width:1;stroke-dasharray:2.0,2.0;" x1="245.2813" x2="1504.5352" y1="614.1094" y2="614.1094"/><text fill="#000000" font-family="Microsoft YaHei" font-size="16" font-weight="bold" lengthAdjust="spacing" textLength="76.4688" x="250.2813" y="631.0391">[&#25480;&#26435;&#25104;&#21151;]</text><g class="message" data-participant-1="A" data-participant-2="D"><polygon fill="#181818" points="694.2031,659.3438,704.2031,663.3438,694.2031,667.3438,698.2031,663.3438" style="stroke:#181818;stroke-width:1;"/><line style="stroke:#181818;stroke-width:1;" x1="328.6523" x2="700.2031" y1="663.3438" y2="663.3438"/><text fill="#000000" font-family="Microsoft YaHei" font-size="16" lengthAdjust="spacing" textLength="137.9141" x="335.6523" y="657.1563">dispense(amount)</text></g><g class="message" data-participant-1="D" data-participant-2="A"><polygon fill="#181818" points="339.6523,694.4609,329.6523,698.4609,339.6523,702.4609,335.6523,698.4609" style="stroke:#181818;stroke-width:1;"/><line style="stroke:#181818;stroke-width:1;stroke-dasharray:2.0,2.0;" x1="333.6523" x2="705.2031" y1="698.4609" y2="698.4609"/><text fill="#000000" font-family="Microsoft YaHei" font-size="16" lengthAdjust="spacing" textLength="114.5469" x="345.6523" y="692.2734">dispenseResult</text></g><path d="M255.2813,713.4609 L320.8828,713.4609 L320.8828,726.5781 L310.8828,736.5781 L255.2813,736.5781 L255.2813,713.4609" fill="#EEEEEE" style="stroke:#000000;stroke-width:1.5;"/><rect fill="none" height="473.7578" style="stroke:#000000;stroke-width:1.5;" width="1239.2539" x="255.2813" y="713.4609"/><text fill="#000000" font-family="Microsoft YaHei" font-size="16" font-weight="bold" lengthAdjust="spacing" textLength="20.6016" x="270.2813" y="731.3906">alt</text><text fill="#000000" font-family="Microsoft YaHei" font-size="16" font-weight="bold" lengthAdjust="spacing" textLength="76.4688" x="335.8828" y="732.3906">[&#20986;&#38046;&#25104;&#21151;]</text><g class="message" data-participant-1="A" data-participant-2="G"><polygon fill="#181818" points="833.082,765.8125,843.082,769.8125,833.082,773.8125,837.082,769.8125" style="stroke:#181818;stroke-width:1;"/><line style="stroke:#181818;stroke-width:1;" x1="328.6523" x2="839.082" y1="769.8125" y2="769.8125"/><text fill="#000000" font-family="Microsoft YaHei" font-size="16" lengthAdjust="spacing" textLength="98.6563" x="335.6523" y="763.625">confirm(txId)</text></g><g class="message" data-participant-1="G" data-participant-2="B"><polygon fill="#181818" points="1286.6211,800.9297,1296.6211,804.9297,1286.6211,808.9297,1290.6211,804.9297" style="stroke:#181818;stroke-width:1;"/><line style="stroke:#181818;stroke-width:1;" x1="845.082" x2="1292.6211" y1="804.9297" y2="804.9297"/><text fill="#000000" font-family="Microsoft YaHei" font-size="16" lengthAdjust="spacing" textLength="98.6563" x="852.082" y="798.7422">confirm(txId)</text></g><g class="message" data-participant-1="B" data-participant-2="G"><polygon fill="#181818" points="856.082,836.0469,846.082,840.0469,856.082,844.0469,852.082,840.0469" style="stroke:#181818;stroke-width:1;"/><line style="stroke:#181818;stroke-width:1;stroke-dasharray:2.0,2.0;" x1="850.082" x2="1297.6211" y1="840.0469" y2="840.0469"/><text fill="#000000" font-family="Microsoft YaHei" font-size="16" lengthAdjust="spacing" textLength="83.6719" x="862.082" y="833.8594">committed</text></g><g class="message" data-participant-1="G" data-participant-2="A"><polygon fill="#181818" points="339.6523,871.1641,329.6523,875.1641,339.6523,879.1641,335.6523,875.1641" style="stroke:#181818;stroke-width:1;"/><line style="stroke:#181818;stroke-width:1;stroke-dasharray:2.0,2.0;" x1="333.6523" x2="844.082" y1="875.1641" y2="875.1641"/><text fill="#000000" font-family="Microsoft YaHei" font-size="16" lengthAdjust="spacing" textLength="83.6719" x="345.6523" y="868.9766">committed</text></g><g class="message" data-participant-1="A" data-participant-2="P"><polygon fill="#181818" points="1411.4219,906.2813,1421.4219,910.2813,1411.4219,914.2813,1415.4219,910.2813" style="stroke:#181818;stroke-width:1;"/><line style="stroke:#181818;stroke-width:1;" x1="328.6523" x2="1417.4219" y1="910.2813" y2="910.2813"/><text fill="#000000" font-family="Microsoft YaHei" font-size="16" lengthAdjust="spacing" textLength="201.4375" x="335.6523" y="904.0938">printReceipt(txId, amount)</text></g><g class="message" data-participant-1="P" data-participant-2="A"><polygon fill="#181818" points="339.6523,941.3984,329.6523,945.3984,339.6523,949.3984,335.6523,945.3984" style="stroke:#181818;stroke-width:1;"/><line style="stroke:#181818;stroke-width:1;stroke-dasharray:2.0,2.0;" x1="333.6523" x2="1422.4219" y1="945.3984" y2="945.3984"/><text fill="#000000" font-family="Microsoft YaHei" font-size="16" lengthAdjust="spacing" textLength="120.0391" x="345.6523" y="939.2109">printedOrFailed</text></g><g class="message" data-participant-1="A" data-participant-2="S"><polygon fill="#181818" points="588.3086,976.5156,598.3086,980.5156,588.3086,984.5156,592.3086,980.5156" style="stroke:#181818;stroke-width:1;"/><line style="stroke:#181818;stroke-width:1;" x1="328.6523" x2="594.3086" y1="980.5156" y2="980.5156"/><text fill="#000000" font-family="Microsoft YaHei" font-size="16" lengthAdjust="spacing" textLength="245.4609" x="335.6523" y="974.3281">showSuccessAndReceiptStatus()</text></g><line style="stroke:#000000;stroke-width:1;stroke-dasharray:2.0,2.0;" x1="255.2813" x2="1494.5352" y1="989.5156" y2="989.5156"/><text fill="#000000" font-family="Microsoft YaHei" font-size="16" font-weight="bold" lengthAdjust="spacing" textLength="76.4688" x="260.2813" y="1006.4453">[&#20986;&#38046;&#22833;&#36133;]</text><g class="message" data-participant-1="A" data-participant-2="G"><polygon fill="#181818" points="833.082,1034.75,843.082,1038.75,833.082,1042.75,837.082,1038.75" style="stroke:#181818;stroke-width:1;"/><line style="stroke:#181818;stroke-width:1;" x1="328.6523" x2="839.082" y1="1038.75" y2="1038.75"/><text fill="#000000" font-family="Microsoft YaHei" font-size="16" lengthAdjust="spacing" textLength="87.7813" x="335.6523" y="1032.5625">cancel(txId)</text></g><g class="message" data-participant-1="G" data-participant-2="B"><polygon fill="#181818" points="1286.6211,1069.8672,1296.6211,1073.8672,1286.6211,1077.8672,1290.6211,1073.8672" style="stroke:#181818;stroke-width:1;"/><line style="stroke:#181818;stroke-width:1;" x1="845.082" x2="1292.6211" y1="1073.8672" y2="1073.8672"/><text fill="#000000" font-family="Microsoft YaHei" font-size="16" lengthAdjust="spacing" textLength="87.7813" x="852.082" y="1067.6797">cancel(txId)</text></g><g class="message" data-participant-1="B" data-participant-2="G"><polygon fill="#181818" points="856.082,1104.9844,846.082,1108.9844,856.082,1112.9844,852.082,1108.9844" style="stroke:#181818;stroke-width:1;"/><line style="stroke:#181818;stroke-width:1;stroke-dasharray:2.0,2.0;" x1="850.082" x2="1297.6211" y1="1108.9844" y2="1108.9844"/><text fill="#000000" font-family="Microsoft YaHei" font-size="16" lengthAdjust="spacing" textLength="65.4922" x="862.082" y="1102.7969">reversed</text></g><g class="message" data-participant-1="G" data-participant-2="A"><polygon fill="#181818" points="339.6523,1140.1016,329.6523,1144.1016,339.6523,1148.1016,335.6523,1144.1016" style="stroke:#181818;stroke-width:1;"/><line style="stroke:#181818;stroke-width:1;stroke-dasharray:2.0,2.0;" x1="333.6523" x2="844.082" y1="1144.1016" y2="1144.1016"/><text fill="#000000" font-family="Microsoft YaHei" font-size="16" lengthAdjust="spacing" textLength="65.4922" x="345.6523" y="1137.9141">reversed</text></g><g class="message" data-participant-1="A" data-participant-2="S"><polygon fill="#181818" points="588.3086,1175.2188,598.3086,1179.2188,588.3086,1183.2188,592.3086,1179.2188" style="stroke:#181818;stroke-width:1;"/><line style="stroke:#181818;stroke-width:1;" x1="328.6523" x2="594.3086" y1="1179.2188" y2="1179.2188"/><text fill="#000000" font-family="Microsoft YaHei" font-size="16" lengthAdjust="spacing" textLength="115.2813" x="335.6523" y="1173.0313">displayFailure()</text></g><g class="message" data-participant-1="A" data-participant-2="R"><polygon fill="#181818" points="164.1055,1231.3359,154.1055,1235.3359,164.1055,1239.3359,160.1055,1235.3359" style="stroke:#181818;stroke-width:1;"/><line style="stroke:#181818;stroke-width:1;" x1="158.1055" x2="327.6523" y1="1235.3359" y2="1235.3359"/><text fill="#000000" font-family="Microsoft YaHei" font-size="16" lengthAdjust="spacing" textLength="82.9922" x="170.1055" y="1229.1484">ejectCard()</text></g><g class="message" data-participant-1="R" data-participant-2="User"><polygon fill="#181818" points="36.2695,1266.4531,26.2695,1270.4531,36.2695,1274.4531,32.2695,1270.4531" style="stroke:#181818;stroke-width:1;"/><line style="stroke:#181818;stroke-width:1;stroke-dasharray:2.0,2.0;" x1="30.2695" x2="152.1055" y1="1270.4531" y2="1270.4531"/><text fill="#000000" font-family="Microsoft YaHei" font-size="16" lengthAdjust="spacing" textLength="103.8359" x="42.2695" y="1264.2656">cardReturned</text></g><path d="M272,1283.4531 L272,1356.4531 L1354,1356.4531 L1354,1293.4531 L1344,1283.4531 L272,1283.4531" fill="#FEFFDD" style="stroke:#181818;stroke-width:0.5;"/><path d="M1344,1283.4531 L1344,1293.4531 L1354,1293.4531 L1344,1283.4531" fill="#FEFFDD" style="stroke:#181818;stroke-width:0.5;"/><text fill="#000000" font-family="Microsoft YaHei" font-size="16" lengthAdjust="spacing" textLength="289.7422" x="663.6426" y="1305.3828">txId &#29992;&#20110;&#24130;&#31561;&#22788;&#29702;&#65307;&#36229;&#26102;&#36827;&#20837;&#24453;&#26680;&#23545;&#29366;&#24577;</text><text fill="#000000" font-family="Microsoft YaHei" font-size="16" lengthAdjust="spacing" textLength="192" x="663.6426" y="1326.5">&#36825;&#20123;&#19968;&#33268;&#24615;&#25514;&#26045;&#26159;&#34917;&#20805;&#35774;&#35745;</text><text fill="#000000" font-family="Microsoft YaHei" font-size="16" lengthAdjust="spacing" textLength="4.7344" x="663.6426" y="1347.6172">&#160;</text><!--SRC=[ZLJFJnD15BxlNp7nr2OGzUB1Wycs3TW3sdJru77OdTAHxKoTcRNY2PGA4aKKWXX0XK0qHjgOO5CQXN-ckzsU_1USsH_j5Wdni9lD-zxxtlk-URDy5fCgPB02B5I2ZYqcA15tO0M1AMmoocb9W0VmDi8QloZJm4yHk7uZ0V8oj6WDanbGWZP72SIq8UUw40nFEmBbJKg2wck9b6bepiumwX0hIstAGAsC1TAWAUJtVOwO9jC4Dd4L4W6oa5b512t40EIWE8BfzwQoSZn6RJk4zH7OC1b2HCMDSvIydCEyYWWFot8ZS97AmTaa5AW6vnGyEG9VSPidRcUZlzxozru18v-zed8oenJ8HBWg2WmJ4ROeQ4eP6By5Yk0cmAgpKD9IQQseehgCcf7KbFh8GG7JcgumGs8CFN8G5rc6B4G4bgRhnD8hqaGXAGmm7dCC4yO03F2G91Sq8B7kL8YbjToWj4evnzEsF0bR0BUpxXvjNUtlxlVtTxljrsvzmM-qDJ0Oo994DfoRWDXs698p8Ba7mDlvxkrqt3TDTwdJV_Snof-K-T0HPShaAgH6HpHDDKVUYgST0-99tafhiaXMPfHqTHvwL0u5fkH_AJA1jcJteBo8k5pie4Ca_K9OsU0t3lpcWhUywVzSx2-zzLQNlTtdxi4F__XG0vUO0K8tWdHlUSrT-HIdvwBqaKC0O7WCCHYF4SmHsZbW6jegxrS9iqegKWo6jls33DqmQQM2XK1ML13lJZ8ST2YejL1B72rqG1RR790MXkiJBBjrboaN4XpA7rwcDSCnJSJLsaPaXe32uSgiqArGuy3SX4P8J6HV9F4SC5J8q6F4-7c1oUWbPmSGaIdgfHuzlhJe8J8JTrP6WoiTtrlXC2Af2HK8KDa7w6CPJOq6UXjVkvrLz-HPx-YbUx3OMtlnvzUstwfxxrl-sRPRFtHFwzxdjlolz5PQtlo2vfzzw7Qsk-rvV-dOc__YhNxpDdzxMqr_xz2jr_t6gT_OqzHmG7Nx2m00]--></g></svg>