<svg xmlns="http://www.w3.org/2000/svg" xmlns:xlink="http://www.w3.org/1999/xlink" contentStyleType="text/css" data-diagram-type="SEQUENCE" height="583px" preserveAspectRatio="none" style="width:911px;height:583px;background:#FFFFFF;" version="1.1" viewBox="0 0 911 583" width="911px" zoomAndPan="magnify"><defs/><g><rect fill="none" height="251.0547" style="stroke:#000000;stroke-width:1.5;" width="894.6445" x="10" y="229.5859"/><g><title>&#25945;&#21153;&#20154;&#21592;</title><rect fill="#000000" fill-opacity="0.00000" height="411.5234" width="8" x="51" y="86.1172"/><line style="stroke:#181818;stroke-width:0.5;stroke-dasharray:5.0,5.0;" x1="55" x2="55" y1="86.1172" y2="497.6406"/></g><g><title>pass:PASS</title><rect fill="#000000" fill-opacity="0.00000" height="411.5234" width="8" x="319.7109" y="86.1172"/><line style="stroke:#181818;stroke-width:0.5;stroke-dasharray:5.0,5.0;" x1="323.0898" x2="323.0898" y1="86.1172" y2="497.6406"/></g><g><title>directory:StudentDirectory</title><rect fill="#000000" fill-opacity="0.00000" height="411.5234" width="8" x="554.4063" y="86.1172"/><line style="stroke:#181818;stroke-width:0.5;stroke-dasharray:5.0,5.0;" x1="557.9961" x2="557.9961" y1="86.1172" y2="497.6406"/></g><g><title>storage:MarksDataStorage</title><rect fill="#000000" fill-opacity="0.00000" height="411.5234" width="8" x="781.7305" y="86.1172"/><line style="stroke:#181818;stroke-width:0.5;stroke-dasharray:5.0,5.0;" x1="784.8164" x2="784.8164" y1="86.1172" y2="497.6406"/></g><g class="participant participant-head" data-participant="S"><text fill="#000000" font-family="Microsoft YaHei" font-size="16" lengthAdjust="spacing" textLength="64" x="20" y="81.9297">&#25945;&#21153;&#20154;&#21592;</text><ellipse cx="55" cy="13.5" fill="#E2E2F0" rx="8" ry="8" style="stroke:#181818;stroke-width:0.5;"/><path d="M55,21.5 L55,48.5 M42,29.5 L68,29.5 M55,48.5 L42,63.5 M55,48.5 L68,63.5" fill="none" style="stroke:#181818;stroke-width:0.5;"/></g><g class="participant participant-tail" data-participant="S"><text fill="#000000" font-family="Microsoft YaHei" font-size="16" lengthAdjust="spacing" textLength="64" x="20" y="513.5703">&#25945;&#21153;&#20154;&#21592;</text><ellipse cx="55" cy="526.2578" fill="#E2E2F0" rx="8" ry="8" style="stroke:#181818;stroke-width:0.5;"/><path d="M55,534.2578 L55,561.2578 M42,542.2578 L68,542.2578 M55,561.2578 L42,576.2578 M55,561.2578 L68,576.2578" fill="none" style="stroke:#181818;stroke-width:0.5;"/></g><g class="participant participant-head" data-participant="P"><rect fill="#E2E2F0" height="35.1172" rx="2.5" ry="2.5" style="stroke:#181818;stroke-width:0.5;" width="91.2422" x="278.0898" y="50"/><text fill="#000000" font-family="Microsoft YaHei" font-size="16" lengthAdjust="spacing" textLength="77.2422" x="285.0898" y="73.9297">pass:PASS</text></g><g class="participant participant-tail" data-participant="P"><rect fill="#E2E2F0" height="35.1172" rx="2.5" ry="2.5" style="stroke:#181818;stroke-width:0.5;" width="91.2422" x="278.0898" y="496.6406"/><text fill="#000000" font-family="Microsoft YaHei" font-size="16" lengthAdjust="spacing" textLength="77.2422" x="285.0898" y="520.5703">pass:PASS</text></g><g class="participant participant-head" data-participant="D"><rect fill="#E2E2F0" height="35.1172" rx="2.5" ry="2.5" style="stroke:#181818;stroke-width:0.5;" width="216.8203" x="449.9961" y="50"/><text fill="#000000" font-family="Microsoft YaHei" font-size="16" lengthAdjust="spacing" textLength="202.8203" x="456.9961" y="73.9297">directory:StudentDirectory</text></g><g class="participant participant-tail" data-participant="D"><rect fill="#E2E2F0" height="35.1172" rx="2.5" ry="2.5" style="stroke:#181818;stroke-width:0.5;" width="216.8203" x="449.9961" y="496.6406"/><text fill="#000000" font-family="Microsoft YaHei" font-size="16" lengthAdjust="spacing" textLength="202.8203" x="456.9961" y="520.5703">directory:StudentDirectory</text></g><g class="participant participant-head" data-participant="M"><rect fill="#E2E2F0" height="35.1172" rx="2.5" ry="2.5" style="stroke:#181818;stroke-width:0.5;" width="217.8281" x="676.8164" y="50"/><text fill="#000000" font-family="Microsoft YaHei" font-size="16" lengthAdjust="spacing" textLength="203.8281" x="683.8164" y="73.9297">storage:MarksDataStorage</text></g><g class="participant participant-tail" data-participant="M"><rect fill="#E2E2F0" height="35.1172" rx="2.5" ry="2.5" style="stroke:#181818;stroke-width:0.5;" width="217.8281" x="676.8164" y="496.6406"/><text fill="#000000" font-family="Microsoft YaHei" font-size="16" lengthAdjust="spacing" textLength="203.8281" x="683.8164" y="520.5703">storage:MarksDataStorage</text></g><g class="message" data-participant-1="S" data-participant-2="P"><polygon fill="#181818" points="311.7109,140.3516,321.7109,144.3516,311.7109,148.3516,315.7109,144.3516" style="stroke:#181818;stroke-width:1;"/><line style="stroke:#181818;stroke-width:1;" x1="55" x2="317.7109" y1="144.3516" y2="144.3516"/><text fill="#000000" font-family="Microsoft YaHei" font-size="16" lengthAdjust="spacing" textLength="200.7109" x="62" y="117.0469">query("Bjarne Stroustrup",</text><text fill="#000000" font-family="Microsoft YaHei" font-size="16" lengthAdjust="spacing" textLength="244.7109" x="62" y="138.1641">"Advanced C++ Programming")</text></g><g class="message" data-participant-1="P" data-participant-2="D"><polygon fill="#181818" points="546.4063,175.4688,556.4063,179.4688,546.4063,183.4688,550.4063,179.4688" style="stroke:#181818;stroke-width:1;"/><line style="stroke:#181818;stroke-width:1;" x1="323.7109" x2="552.4063" y1="179.4688" y2="179.4688"/><text fill="#000000" font-family="Microsoft YaHei" font-size="16" lengthAdjust="spacing" textLength="210.6953" x="330.7109" y="173.2813">findIds("Bjarne Stroustrup")</text></g><g class="message" data-participant-1="D" data-participant-2="P"><polygon fill="#181818" points="334.7109,210.5859,324.7109,214.5859,334.7109,218.5859,330.7109,214.5859" style="stroke:#181818;stroke-width:1;"/><line style="stroke:#181818;stroke-width:1;stroke-dasharray:2.0,2.0;" x1="328.7109" x2="557.4063" y1="214.5859" y2="214.5859"/><text fill="#000000" font-family="Microsoft YaHei" font-size="16" lengthAdjust="spacing" textLength="21.8984" x="340.7109" y="208.3984">ids</text></g><path d="M10,229.5859 L75.6016,229.5859 L75.6016,242.7031 L65.6016,252.7031 L10,252.7031 L10,229.5859" fill="#EEEEEE" style="stroke:#000000;stroke-width:1.5;"/><rect fill="none" height="251.0547" style="stroke:#000000;stroke-width:1.5;" width="894.6445" x="10" y="229.5859"/><text fill="#000000" font-family="Microsoft YaHei" font-size="16" font-weight="bold" lengthAdjust="spacing" textLength="20.6016" x="25" y="247.5156">alt</text><text fill="#000000" font-family="Microsoft YaHei" font-size="16" font-weight="bold" lengthAdjust="spacing" textLength="99.2656" x="90.6016" y="248.5156">[&#24688;&#22909;&#19968;&#20010; ID]</text><g class="message" data-participant-1="P" data-participant-2="M"><polygon fill="#181818" points="773.7305,281.9375,783.7305,285.9375,773.7305,289.9375,777.7305,285.9375" style="stroke:#181818;stroke-width:1;"/><line style="stroke:#181818;stroke-width:1;" x1="323.7109" x2="779.7305" y1="285.9375" y2="285.9375"/><text fill="#000000" font-family="Microsoft YaHei" font-size="16" lengthAdjust="spacing" textLength="345.1094" x="330.7109" y="279.75">getMarks(id, "Advanced C++ Programming")</text></g><g class="message" data-participant-1="M" data-participant-2="P"><polygon fill="#181818" points="334.7109,317.0547,324.7109,321.0547,334.7109,325.0547,330.7109,321.0547" style="stroke:#181818;stroke-width:1;"/><line style="stroke:#181818;stroke-width:1;stroke-dasharray:2.0,2.0;" x1="328.7109" x2="784.7305" y1="321.0547" y2="321.0547"/><text fill="#000000" font-family="Microsoft YaHei" font-size="16" lengthAdjust="spacing" textLength="46.0625" x="340.7109" y="314.8672">marks</text></g><g class="message" data-participant-1="P" data-participant-2="S"><polygon fill="#181818" points="66,352.1719,56,356.1719,66,360.1719,62,356.1719" style="stroke:#181818;stroke-width:1;"/><line style="stroke:#181818;stroke-width:1;stroke-dasharray:2.0,2.0;" x1="60" x2="322.7109" y1="356.1719" y2="356.1719"/><text fill="#000000" font-family="Microsoft YaHei" font-size="16" lengthAdjust="spacing" textLength="46.0625" x="72" y="349.9844">marks</text></g><line style="stroke:#000000;stroke-width:1;stroke-dasharray:2.0,2.0;" x1="10" x2="904.6445" y1="365.1719" y2="365.1719"/><text fill="#000000" font-family="Microsoft YaHei" font-size="16" font-weight="bold" lengthAdjust="spacing" textLength="60.4688" x="15" y="382.1016">[&#38646;&#21305;&#37197;]</text><g class="message" data-participant-1="P" data-participant-2="S"><polygon fill="#181818" points="66,410.4063,56,414.4063,66,418.4063,62,414.4063" style="stroke:#181818;stroke-width:1;"/><line style="stroke:#181818;stroke-width:1;stroke-dasharray:2.0,2.0;" x1="60" x2="322.7109" y1="414.4063" y2="414.4063"/><text fill="#000000" font-family="Microsoft YaHei" font-size="16" lengthAdjust="spacing" textLength="136.125" x="72" y="408.2188">studentNotFound</text></g><line style="stroke:#000000;stroke-width:1;stroke-dasharray:2.0,2.0;" x1="10" x2="904.6445" y1="423.4063" y2="423.4063"/><text fill="#000000" font-family="Microsoft YaHei" font-size="16" font-weight="bold" lengthAdjust="spacing" textLength="76.4688" x="15" y="440.3359">[&#22810;&#20010;&#21305;&#37197;]</text><g class="message" data-participant-1="P" data-participant-2="S"><polygon fill="#181818" points="66,468.6406,56,472.6406,66,476.6406,62,472.6406" style="stroke:#181818;stroke-width:1;"/><line style="stroke:#181818;stroke-width:1;stroke-dasharray:2.0,2.0;" x1="60" x2="322.7109" y1="472.6406" y2="472.6406"/><text fill="#000000" font-family="Microsoft YaHei" font-size="16" lengthAdjust="spacing" textLength="131.7656" x="72" y="466.4531">ambiguousName</text></g><!--SRC=[VP8zImD148Rx_HN3LKeYQ6EHGeWvn1IHWwq4cydjvbnpjnjtvnIjjB0HBIm4Fof16oihYG7_JIwGV-7cOYHYi5lcVUQThtLTfNjeCGCXEvYdj6KqxM0ceQLYQvpf4EpYjbJCBIAvEfMmjZudkdqKvbZf13gOEZcdn2awLoUogfsJRCP6bzchSqWRusvYJQv5mwJ6ml6-8iam9lyEHhVtnUNJS30eRku2G0US-InIiUgX9WXwthuMrJalnUYtA9IL4vkJ6gTSI4tXB53IuM_QUG4JMMkXxReG2VaqKB8jnc5b0oAemM4kxSbIi7c0LalWv5jtPFDUKDtJGLqSeOwbW4Qb0f4rYPymyui9bbaqCGYzGKTfqHHkaSKo2s7bkuuIZc5AC3f_Aru-X_spOVyLcY63qgZbYKHIsUoI4bNuhxIdPwxP9A7qy07-4v3-R31-V2-kFiONr_Ewcwvkn_ZR-njDoUBvmNVp5yQihPBSJpFvJKngyGK0]--></g></svg>