<svg xmlns="http://www.w3.org/2000/svg" xmlns:xlink="http://www.w3.org/1999/xlink" contentStyleType="text/css" data-diagram-type="CLASS" height="212px" preserveAspectRatio="none" style="width:544px;height:212px;background:#FFFFFF;" version="1.1" viewBox="0 0 544 212" width="544px" zoomAndPan="magnify"><defs/><g><!--class MathTeacher--><g class="entity" data-entity="MathTeacher" data-source-line="6" data-uid="ent0002" id="entity_MathTeacher"><rect fill="#F1F1F1" height="69.1172" rx="2.5" ry="2.5" style="stroke:#181818;stroke-width:0.5;" width="132.4453" x="57.5" y="7"/><ellipse cx="72.5" cy="23" fill="#ADD1B2" rx="11" ry="11" style="stroke:#181818;stroke-width:1;"/><path d="M71.8125,28.375 Q70.0625,28.375 69.0313,27.0625 Q68,25.75 68,22.9375 Q68,20.5625 69.0938,19 Q70.1875,17.4375 72.0625,17.4375 Q73.5,17.4375 73.9375,17.5625 Q74.375,17.75 74.375,17.75 Q74.375,17.75 74.375,17.6875 Q74.375,17.625 74.875,16.6875 L75.9375,20.1875 L74.6563,20.625 Q74.1875,19.125 73.5625,18.5 Q72.9375,17.875 71.9375,17.875 Q71.625,17.875 70.9063,19.3125 Q70.1875,20.75 70.1875,22.875 Q70.1875,25.1875 70.8125,26.5 Q71.4375,27.8125 71.875,27.8125 Q72.875,27.8125 73.5938,27.0938 Q74.3125,26.375 74.6563,24.75 L75.9375,25.375 Q75.625,26.6875 74.7813,27.5313 Q73.9375,28.375 71.8125,28.375 Z " fill="#000000"/><text fill="#000000" font-family="Microsoft YaHei" font-size="16" lengthAdjust="spacing" textLength="100.4453" x="86.5" y="29.3711">MathTeacher</text><line style="stroke:#181818;stroke-width:0.5;" x1="58.5" x2="188.9453" y1="39" y2="39"/><line style="stroke:#181818;stroke-width:0.5;" x1="58.5" x2="188.9453" y1="47" y2="47"/><text fill="#000000" font-family="Microsoft YaHei" font-size="16" lengthAdjust="spacing" textLength="74.9219" x="63.5" y="67.9297">+lecture()</text></g><!--class MathLearner--><g class="entity" data-entity="MathLearner" data-source-line="9" data-uid="ent0003" id="entity_MathLearner"><rect fill="#F1F1F1" height="69.1172" rx="2.5" ry="2.5" style="stroke:#181818;stroke-width:0.5;" width="233.1094" x="7" y="136"/><ellipse cx="70.5156" cy="152" fill="#B4A7E5" rx="11" ry="11" style="stroke:#181818;stroke-width:1;"/><path d="M68.0156,146.9375 L68.0156,146.5625 L74.0156,146.5625 L74.0156,146.9375 L71.5781,146.9375 Q71.5781,146.9375 71.7422,147.0625 Q71.9063,147.1875 71.9063,147.4375 L71.9063,156.375 Q71.9063,156.625 72.1172,156.75 Q72.3281,156.875 72.3281,156.875 L74.0156,156.875 L74.0156,157.25 L68.0156,157.25 L68.0156,156.875 L69.4531,156.875 Q69.7656,156.875 69.8906,156.75 Q70.0156,156.625 70.0156,156.375 L70.0156,147.4375 Q70.0156,147.1875 69.8906,147.0625 Q69.7656,146.9375 69.4531,146.9375 L68.0156,146.9375 Z " fill="#000000"/><text fill="#000000" font-family="Microsoft YaHei" font-size="16" font-style="italic" lengthAdjust="spacing" textLength="97.5781" x="91.0156" y="158.3711">MathLearner</text><line style="stroke:#181818;stroke-width:0.5;" x1="8" x2="239.1094" y1="168" y2="168"/><line style="stroke:#181818;stroke-width:0.5;" x1="8" x2="239.1094" y1="176" y2="176"/><text fill="#000000" font-family="Microsoft YaHei" font-size="16" lengthAdjust="spacing" textLength="221.1094" x="13" y="196.9297">+learnMath(exercise : String)</text></g><!--class Musician--><g class="entity" data-entity="Musician" data-source-line="12" data-uid="ent0004" id="entity_Musician"><rect fill="#F1F1F1" height="69.1172" rx="2.5" ry="2.5" style="stroke:#181818;stroke-width:0.5;" width="109.2656" x="275" y="136"/><ellipse cx="294.1063" cy="152" fill="#B4A7E5" rx="11" ry="11" style="stroke:#181818;stroke-width:1;"/><path d="M291.6063,146.9375 L291.6063,146.5625 L297.6063,146.5625 L297.6063,146.9375 L295.1688,146.9375 Q295.1688,146.9375 295.3328,147.0625 Q295.4969,147.1875 295.4969,147.4375 L295.4969,156.375 Q295.4969,156.625 295.7078,156.75 Q295.9188,156.875 295.9188,156.875 L297.6063,156.875 L297.6063,157.25 L291.6063,157.25 L291.6063,156.875 L293.0438,156.875 Q293.3563,156.875 293.4813,156.75 Q293.6063,156.625 293.6063,156.375 L293.6063,147.4375 Q293.6063,147.1875 293.4813,147.0625 Q293.3563,146.9375 293.0438,146.9375 L291.6063,146.9375 Z " fill="#000000"/><text fill="#000000" font-family="Microsoft YaHei" font-size="16" font-style="italic" lengthAdjust="spacing" textLength="68.1406" x="309.0188" y="158.3711">Musician</text><line style="stroke:#181818;stroke-width:0.5;" x1="276" x2="383.2656" y1="168" y2="168"/><line style="stroke:#181818;stroke-width:0.5;" x1="276" x2="383.2656" y1="176" y2="176"/><text fill="#000000" font-family="Microsoft YaHei" font-size="16" lengthAdjust="spacing" textLength="97.2656" x="281" y="196.9297">+playPiano()</text></g><!--class Writer--><g class="entity" data-entity="Writer" data-source-line="15" data-uid="ent0005" id="entity_Writer"><rect fill="#F1F1F1" height="69.1172" rx="2.5" ry="2.5" style="stroke:#181818;stroke-width:0.5;" width="117.5078" x="419.5" y="136"/><ellipse cx="451.4699" cy="152" fill="#B4A7E5" rx="11" ry="11" style="stroke:#181818;stroke-width:1;"/><path d="M448.9699,146.9375 L448.9699,146.5625 L454.9699,146.5625 L454.9699,146.9375 L452.5324,146.9375 Q452.5324,146.9375 452.6965,147.0625 Q452.8605,147.1875 452.8605,147.4375 L452.8605,156.375 Q452.8605,156.625 453.0715,156.75 Q453.2824,156.875 453.2824,156.875 L454.9699,156.875 L454.9699,157.25 L448.9699,157.25 L448.9699,156.875 L450.4074,156.875 Q450.7199,156.875 450.8449,156.75 Q450.9699,156.625 450.9699,156.375 L450.9699,147.4375 Q450.9699,147.1875 450.8449,147.0625 Q450.7199,146.9375 450.4074,146.9375 L448.9699,146.9375 Z " fill="#000000"/><text fill="#000000" font-family="Microsoft YaHei" font-size="16" font-style="italic" lengthAdjust="spacing" textLength="47.7969" x="469.241" y="158.3711">Writer</text><line style="stroke:#181818;stroke-width:0.5;" x1="420.5" x2="536.0078" y1="168" y2="168"/><line style="stroke:#181818;stroke-width:0.5;" x1="420.5" x2="536.0078" y1="176" y2="176"/><text fill="#000000" font-family="Microsoft YaHei" font-size="16" lengthAdjust="spacing" textLength="105.5078" x="425.5" y="196.9297">+writeNovel()</text></g><!--class FirstYearStudent--><g class="entity" data-entity="FirstYearStudent" data-source-line="18" data-uid="ent0006" id="entity_FirstYearStudent"><rect fill="#F1F1F1" height="48" rx="2.5" ry="2.5" style="stroke:#181818;stroke-width:0.5;" width="158.1094" x="250.5" y="17.5"/><ellipse cx="265.5" cy="33.5" fill="#ADD1B2" rx="11" ry="11" style="stroke:#181818;stroke-width:1;"/><path d="M264.8125,38.875 Q263.0625,38.875 262.0313,37.5625 Q261,36.25 261,33.4375 Q261,31.0625 262.0938,29.5 Q263.1875,27.9375 265.0625,27.9375 Q266.5,27.9375 266.9375,28.0625 Q267.375,28.25 267.375,28.25 Q267.375,28.25 267.375,28.1875 Q267.375,28.125 267.875,27.1875 L268.9375,30.6875 L267.6563,31.125 Q267.1875,29.625 266.5625,29 Q265.9375,28.375 264.9375,28.375 Q264.625,28.375 263.9063,29.8125 Q263.1875,31.25 263.1875,33.375 Q263.1875,35.6875 263.8125,37 Q264.4375,38.3125 264.875,38.3125 Q265.875,38.3125 266.5938,37.5938 Q267.3125,36.875 267.6563,35.25 L268.9375,35.875 Q268.625,37.1875 267.7813,38.0313 Q266.9375,38.875 264.8125,38.875 Z " fill="#000000"/><text fill="#000000" font-family="Microsoft YaHei" font-size="16" lengthAdjust="spacing" textLength="126.1094" x="279.5" y="39.8711">FirstYearStudent</text><line style="stroke:#181818;stroke-width:0.5;" x1="251.5" x2="407.6094" y1="49.5" y2="49.5"/><line style="stroke:#181818;stroke-width:0.5;" x1="251.5" x2="407.6094" y1="57.5" y2="57.5"/></g><!--link MathTeacher to MathLearner--><g class="link" data-entity-1="MathTeacher" data-entity-2="MathLearner" data-source-line="19" data-uid="lnk7" id="link_MathTeacher_MathLearner"><path codeLine="19" d="M123.5,76.2 C123.5,94.57 123.5,111.25 123.5,129.64" fill="none" id="MathTeacher-to-MathLearner" style="stroke:#181818;stroke-width:1;"/><polygon fill="#181818" points="123.5,135.64,127.5,126.64,123.5,130.64,119.5,126.64,123.5,135.64" style="stroke:#181818;stroke-width:1;"/><text fill="#000000" font-family="Microsoft YaHei" font-size="16" lengthAdjust="spacing" textLength="24.3672" x="97.3555" y="101.1809">0..*</text><text fill="#000000" font-family="Microsoft YaHei" font-size="16" lengthAdjust="spacing" textLength="9.3828" x="113.7501" y="123.7734">1</text></g><!--link FirstYearStudent to MathLearner--><g class="link" data-entity-1="FirstYearStudent" data-entity-2="MathLearner" data-source-line="20" data-uid="lnk8" id="link_FirstYearStudent_MathLearner"><path codeLine="20" d="M291.72,65.79 C259.89,85.41 229.2721,104.2936 193.4421,126.3836" fill="none" id="FirstYearStudent-to-MathLearner" style="stroke:#181818;stroke-width:1;stroke-dasharray:7.0,7.0;"/><polygon fill="none" points="178.12,135.83,196.5909,131.491,190.2933,121.2762,178.12,135.83" style="stroke:#181818;stroke-width:1;"/></g><!--link FirstYearStudent to Musician--><g class="link" data-entity-1="FirstYearStudent" data-entity-2="Musician" data-source-line="21" data-uid="lnk9" id="link_FirstYearStudent_Musician"><path codeLine="21" d="M329.5,65.79 C329.5,85.41 329.5,95.74 329.5,117.83" fill="none" id="FirstYearStudent-to-Musician" style="stroke:#181818;stroke-width:1;stroke-dasharray:7.0,7.0;"/><polygon fill="none" points="329.5,135.83,335.5,117.83,323.5,117.83,329.5,135.83" style="stroke:#181818;stroke-width:1;"/></g><!--link FirstYearStudent to Writer--><g class="link" data-entity-1="FirstYearStudent" data-entity-2="Writer" data-source-line="22" data-uid="lnk10" id="link_FirstYearStudent_Writer"><path codeLine="22" d="M356.83,65.79 C379.85,85.41 399.3825,102.0619 425.2925,124.1519" fill="none" id="FirstYearStudent-to-Writer" style="stroke:#181818;stroke-width:1;stroke-dasharray:7.0,7.0;"/><polygon fill="none" points="438.99,135.83,429.1851,119.5861,421.3998,128.7178,438.99,135.83" style="stroke:#181818;stroke-width:1;"/></g><!--SRC=[ZOvDIyD048Rl-ok6dAhIq5uyU2Y8K1Hi4I98ZzFD91cwtIspiyRF_swQY8IYu6rst-UTUUAE_G45zr1IXSdfCdXTuvvWnLP239N21c-9JVoDBFYDO7uv2cE3PMZPrr2XYpHAhCCOhrM5jqdfpWRVjsSZP8jsLqj8lhm9BWYq3IkPlWWhrEQHq3Oay6ukm97L93GvCv-6lP9KQAcdxWd5_r3TVFoSq0k9vKXm1KNduEkJOefi6NtVEZXyVUWUuMJxatG-m-BsEAx3CxcU6HoNB54ttSb2KqbUpLWwc-NvUGRJwGAoUJOsDQSzoFEFnN-8R-a_ua7t2m00]--></g></svg>