<svg xmlns="http://www.w3.org/2000/svg" xmlns:xlink="http://www.w3.org/1999/xlink" contentStyleType="text/css" data-diagram-type="CLASS" height="195px" preserveAspectRatio="none" style="width:256px;height:195px;background:#FFFFFF;" version="1.1" viewBox="0 0 256 195" width="256px" zoomAndPan="magnify"><defs/><g><!--class AgeChecking--><g class="entity" data-entity="AgeChecking" data-source-line="6" data-uid="ent0002" id="entity_AgeChecking"><rect fill="#F1F1F1" height="69.1172" rx="2.5" ry="2.5" style="stroke:#181818;stroke-width:0.5;" width="242.2188" x="7" y="7"/><ellipse cx="73.2148" cy="23" fill="#ADD1B2" rx="11" ry="11" style="stroke:#181818;stroke-width:1;"/><path d="M72.5273,28.375 Q70.7773,28.375 69.7461,27.0625 Q68.7148,25.75 68.7148,22.9375 Q68.7148,20.5625 69.8086,19 Q70.9023,17.4375 72.7773,17.4375 Q74.2148,17.4375 74.6523,17.5625 Q75.0898,17.75 75.0898,17.75 Q75.0898,17.75 75.0898,17.6875 Q75.0898,17.625 75.5898,16.6875 L76.6523,20.1875 L75.3711,20.625 Q74.9023,19.125 74.2773,18.5 Q73.6523,17.875 72.6523,17.875 Q72.3398,17.875 71.6211,19.3125 Q70.9023,20.75 70.9023,22.875 Q70.9023,25.1875 71.5273,26.5 Q72.1523,27.8125 72.5898,27.8125 Q73.5898,27.8125 74.3086,27.0938 Q75.0273,26.375 75.3711,24.75 L76.6523,25.375 Q76.3398,26.6875 75.4961,27.5313 Q74.6523,28.375 72.5273,28.375 Z " fill="#000000"/><text fill="#000000" font-family="Microsoft YaHei" font-size="16" lengthAdjust="spacing" textLength="101.2891" x="93.7148" y="29.3711">AgeChecking</text><line style="stroke:#181818;stroke-width:0.5;" x1="8" x2="248.2188" y1="39" y2="39"/><line style="stroke:#181818;stroke-width:0.5;" x1="8" x2="248.2188" y1="47" y2="47"/><text fill="#000000" font-family="Microsoft YaHei" font-size="16" lengthAdjust="spacing" textLength="230.2188" x="13" y="67.9297">+isOldEnough(age : int) : bool</text></g><g class="entity" data-entity="GMN3" data-source-line="10" data-uid="ent0004" id="entity_GMN3"><path d="M19,136 L19,188.2344 A0,0 0 0 0 19,188.2344 L236.8594,188.2344 A0,0 0 0 0 236.8594,188.2344 L236.8594,146 L226.8594,136 L132,136 L128,76.14 L124,136 L19,136 A0,0 0 0 0 19,136" fill="#FEFFDD" style="stroke:#181818;stroke-width:0.5;"/><path d="M226.8594,136 L226.8594,146 L236.8594,146 L226.8594,136" fill="#FEFFDD" style="stroke:#181818;stroke-width:0.5;"/><text fill="#000000" font-family="Microsoft YaHei" font-size="16" lengthAdjust="spacing" textLength="196.8594" x="25" y="157.9297">&#21407;&#22987;&#23454;&#29616;&#21482;&#21028;&#26029; age &gt;= 18</text><text fill="#000000" font-family="Microsoft YaHei" font-size="16" lengthAdjust="spacing" textLength="4.7344" x="25" y="179.0469">&#160;</text></g><!--SRC=[ROmnImD148Nx_HLJAZQc4GaeXA1eeIbIMSxjpkqDjxSZktC4bFI243jBRGH1KFnJgt_3NAehhDw3ztqljnnlCM47ZchiWvvBr6li2AxO9ibIAzpW1R79_v5BlYEO78t6tA2J5KSFDOPCeyK6p7ccchZgbIwjn9rzE48gjArFqaStbo09LWqhcPq8Cq_pXcmxND-R0-2y2EuiIk-RFVG4K-2e-zkeH89PcoXAswug7KWzratPl9Rtn_BryhlvBayVvU7jv_aJXfFJ4vWS6qFHmU3_0G00]--></g></svg>