<svg xmlns="http://www.w3.org/2000/svg" xmlns:xlink="http://www.w3.org/1999/xlink" contentStyleType="text/css" data-diagram-type="CLASS" height="264px" preserveAspectRatio="none" style="width:478px;height:264px;background:#FFFFFF;" version="1.1" viewBox="0 0 478 264" width="478px" zoomAndPan="magnify"><title>Composite</title><defs/><g><text fill="#000000" font-family="Arial" font-size="14" font-weight="bold" lengthAdjust="spacing" textLength="72.3379" x="196.1479" y="23.3608">Composite</text><!--class Component--><g class="entity" data-entity="Component" data-source-line="15" data-uid="ent0002" id="entity_Component"><rect fill="#FFEDD5" height="102.3945" rx="2.5" ry="2.5" style="stroke:#334155;stroke-width:0.5;" width="164.1338" x="307.5" y="44.0986"/><ellipse cx="349.3774" cy="59.0986" fill="#B4A7E5" rx="10" ry="10" style="stroke:#181818;stroke-width:1;"/><path d="M346.6899,54.3486 L346.6899,54.0205 L352.0649,54.0205 L352.0649,54.3486 L349.8149,54.3486 Q349.8149,54.3486 350.0024,54.458 Q350.1899,54.5674 350.1899,54.7861 L350.1899,62.6143 Q350.1899,62.833 350.3931,62.9424 Q350.5962,63.0518 350.5962,63.0518 L352.0649,63.0518 L352.0649,63.3799 L346.6899,63.3799 L346.6899,63.0518 L347.9556,63.0518 Q348.2212,63.0518 348.3306,62.9424 Q348.4399,62.833 348.4399,62.6143 L348.4399,54.7861 Q348.4399,54.5674 348.3306,54.458 Q348.2212,54.3486 347.9556,54.3486 L346.6899,54.3486 Z " fill="#000000"/><text fill="#000000" font-family="Arial" font-size="14" font-style="italic" lengthAdjust="spacing" textLength="72.3789" x="368.3774" y="64.4102">Component</text><line style="stroke:#334155;stroke-width:0.5;" x1="308.5" x2="470.6338" y1="74.0986" y2="74.0986"/><text fill="#000000" font-family="Arial" font-size="14" lengthAdjust="spacing" textLength="75.8789" x="313.5" y="91.4595">+operation()</text><text fill="#000000" font-family="Arial" font-size="14" lengthAdjust="spacing" textLength="128.0166" x="313.5" y="107.5581">+add(c: Component)</text><text fill="#000000" font-family="Arial" font-size="14" lengthAdjust="spacing" textLength="151.3408" x="313.5" y="123.6567">+remove(c: Component)</text><text fill="#000000" font-family="Arial" font-size="14" lengthAdjust="spacing" textLength="152.1338" x="313.5" y="139.7554">+getChild(i): Component</text></g><!--class Leaf--><g class="entity" data-entity="Leaf" data-source-line="21" data-uid="ent0003" id="entity_Leaf"><rect fill="#FFEDD5" height="54.0986" rx="2.5" ry="2.5" style="stroke:#334155;stroke-width:0.5;" width="87.8789" x="345.5" y="203.0986"/><ellipse cx="373.2839" cy="218.0986" fill="#ADD1B2" rx="10" ry="10" style="stroke:#181818;stroke-width:1;"/><path d="M372.5651,222.4893 Q371.0339,222.4893 370.1276,221.3408 Q369.2214,220.1924 369.2214,217.7236 Q369.2214,215.6455 370.1823,214.2783 Q371.1433,212.9111 372.7839,212.9111 Q374.1589,212.9111 374.5495,213.0205 Q374.9245,213.1924 374.9245,213.1924 Q374.9245,213.1924 374.9245,213.1377 Q374.9245,213.083 375.2839,212.1611 L376.2995,215.3174 L375.0651,215.7393 Q374.6433,214.3955 374.0964,213.8486 Q373.5495,213.3018 372.6745,213.3018 Q372.5183,213.3018 371.8933,214.5596 Q371.2683,215.8174 371.2683,217.6768 Q371.2683,219.6924 371.8151,220.8408 Q372.362,221.9893 372.612,221.9893 Q373.487,221.9893 374.1198,221.3643 Q374.7526,220.7393 375.0651,219.2236 L376.2995,219.8643 Q376.0183,221.0049 375.2839,221.7471 Q374.5495,222.4893 372.5651,222.4893 Z " fill="#000000"/><text fill="#000000" font-family="Arial" font-size="14" lengthAdjust="spacing" textLength="27.248" x="389.347" y="223.4102">Leaf</text><line style="stroke:#334155;stroke-width:0.5;" x1="346.5" x2="432.3789" y1="233.0986" y2="233.0986"/><text fill="#000000" font-family="Arial" font-size="14" lengthAdjust="spacing" textLength="75.8789" x="351.5" y="250.4595">+operation()</text></g><!--class Composite--><g class="entity" data-entity="Composite" data-source-line="24" data-uid="ent0004" id="entity_Composite"><rect fill="#FFEDD5" height="86.2959" rx="2.5" ry="2.5" style="stroke:#334155;stroke-width:0.5;" width="163.3408" x="7" y="52.0986"/><ellipse cx="51.2119" cy="67.0986" fill="#ADD1B2" rx="10" ry="10" style="stroke:#181818;stroke-width:1;"/><path d="M50.4932,71.4893 Q48.9619,71.4893 48.0557,70.3408 Q47.1494,69.1924 47.1494,66.7236 Q47.1494,64.6455 48.1104,63.2783 Q49.0713,61.9111 50.7119,61.9111 Q52.0869,61.9111 52.4775,62.0205 Q52.8525,62.1924 52.8525,62.1924 Q52.8525,62.1924 52.8525,62.1377 Q52.8525,62.083 53.2119,61.1611 L54.2275,64.3174 L52.9932,64.7393 Q52.5713,63.3955 52.0244,62.8486 Q51.4775,62.3018 50.6025,62.3018 Q50.4463,62.3018 49.8213,63.5596 Q49.1963,64.8174 49.1963,66.6768 Q49.1963,68.6924 49.7432,69.8408 Q50.29,70.9893 50.54,70.9893 Q51.415,70.9893 52.0479,70.3643 Q52.6807,69.7393 52.9932,68.2236 L54.2275,68.8643 Q53.9463,70.0049 53.2119,70.7471 Q52.4775,71.4893 50.4932,71.4893 Z " fill="#000000"/><text fill="#000000" font-family="Arial" font-size="14" lengthAdjust="spacing" textLength="66.917" x="70.2119" y="72.4102">Composite</text><line style="stroke:#334155;stroke-width:0.5;" x1="8" x2="169.3408" y1="82.0986" y2="82.0986"/><text fill="#000000" font-family="Arial" font-size="14" lengthAdjust="spacing" textLength="75.8789" x="13" y="99.4595">+operation()</text><text fill="#000000" font-family="Arial" font-size="14" lengthAdjust="spacing" textLength="128.0166" x="13" y="115.5581">+add(c: Component)</text><text fill="#000000" font-family="Arial" font-size="14" lengthAdjust="spacing" textLength="151.3408" x="13" y="131.6567">+remove(c: Component)</text></g><!--reverse link Component to Leaf--><g class="link" data-entity-1="Component" data-entity-2="Leaf" data-source-line="29" data-uid="lnk5" id="link_Component_Leaf"><path codeLine="29" d="M389.5,164.3786 C389.5,183.6486 389.5,186.8586 389.5,202.9786" fill="none" id="Component-backto-Leaf" style="stroke:#334155;stroke-width:1;stroke-dasharray:7.0,7.0;"/><polygon fill="none" points="389.5,146.3786,383.5,164.3786,395.5,164.3786,389.5,146.3786" style="stroke:#334155;stroke-width:1;"/></g><!--reverse link Component to Composite--><g class="link" data-entity-1="Component" data-entity-2="Composite" data-source-line="30" data-uid="lnk6" id="link_Component_Composite"><path codeLine="30" d="M289.3436,97.8596 C260.4236,98.4396 245.68,98.4486 215.83,98.0986 C201.02,97.9286 185.24,97.6386 170.01,97.3086" fill="none" id="Component-backto-Composite" style="stroke:#334155;stroke-width:1;stroke-dasharray:7.0,7.0;"/><polygon fill="none" points="307.34,97.4986,289.2233,91.8608,289.4639,103.8583,307.34,97.4986" style="stroke:#334155;stroke-width:1;"/></g><!--reverse link Composite to Component--><g class="link" data-entity-1="Composite" data-entity-2="Component" data-source-line="31" data-uid="lnk7" id="link_Composite_Component"><path codeLine="31" d="M182.35,95.0986 C224.92,95.0986 264.8,95.0986 307.4,95.0986" fill="none" id="Composite-backto-Component" style="stroke:#334155;stroke-width:1;"/><polygon fill="#334155" points="170.35,95.0986,176.35,99.0986,182.35,95.0986,176.35,91.0986,170.35,95.0986" style="stroke:#334155;stroke-width:1;"/><text fill="#000000" font-family="Arial" font-size="14" lengthAdjust="spacing" textLength="81.71" x="198.25" y="88.4595">children [0..*]</text></g><!--SRC=[fP1FQy904CNl-oaMUb6BGL6XbLvYRA1GUkcnz31c9ydYPZVCZfN-yRjNWpLR8xrqR_FURtblng-rhO6WaYl8rWMvZLM9CuxaLTeyuK-4Bq6vhRQ5pC5u39pCWFSnC-dLXl4XS_PPVw0S1OZ273Q6KsVv2IgKCMamb_tcxtWQc36HsnvhJIRJyMns7hvmf93-HheBtY-N8LRl2IYm2zwaSPfS0CFGssayMTm4a7KAFTRoLnC2kpwAfLOeiQhvNLPOhP2yOCq6PUAgsddDABHbf1ooesRHilmKyjhLIC3QsLv_Fu5IlMpU8WUDi79ls94BvAJKHlLqFt34JZGNaey8UIVWnppL-a-5dMWtkVkAeYRoN6iFq6OEXgIBaeV19UOoE-n2QENBA8e6hzy0]--></g></svg>