<svg xmlns="http://www.w3.org/2000/svg" xmlns:xlink="http://www.w3.org/1999/xlink" contentStyleType="text/css" data-diagram-type="CLASS" height="275px" preserveAspectRatio="none" style="width:370px;height:275px;background:#FFFFFF;" version="1.1" viewBox="0 0 370 275" width="370px" zoomAndPan="magnify"><title>Facade</title><defs/><g><text fill="#000000" font-family="Arial" font-size="14" font-weight="bold" lengthAdjust="spacing" textLength="48.248" x="154.1431" y="23.3608">Facade</text><!--class Client--><g class="entity" data-entity="Client" data-source-line="15" data-uid="ent0002" id="entity_Client"><rect fill="#FFEDD5" height="30" rx="2.5" ry="2.5" style="stroke:#334155;stroke-width:0.5;" width="65.793" x="147" y="44.0986"/><ellipse cx="161" cy="59.0986" fill="#ADD1B2" rx="10" ry="10" style="stroke:#181818;stroke-width:1;"/><path d="M160.2813,63.4893 Q158.75,63.4893 157.8438,62.3408 Q156.9375,61.1924 156.9375,58.7236 Q156.9375,56.6455 157.8984,55.2783 Q158.8594,53.9111 160.5,53.9111 Q161.875,53.9111 162.2656,54.0205 Q162.6406,54.1924 162.6406,54.1924 Q162.6406,54.1924 162.6406,54.1377 Q162.6406,54.083 163,53.1611 L164.0156,56.3174 L162.7813,56.7393 Q162.3594,55.3955 161.8125,54.8486 Q161.2656,54.3018 160.3906,54.3018 Q160.2344,54.3018 159.6094,55.5596 Q158.9844,56.8174 158.9844,58.6768 Q158.9844,60.6924 159.5313,61.8408 Q160.0781,62.9893 160.3281,62.9893 Q161.2031,62.9893 161.8359,62.3643 Q162.4688,61.7393 162.7813,60.2236 L164.0156,60.8643 Q163.7344,62.0049 163,62.7471 Q162.2656,63.4893 160.2813,63.4893 Z " fill="#000000"/><text fill="#000000" font-family="Arial" font-size="14" lengthAdjust="spacing" textLength="35.793" x="174" y="64.4102">Client</text></g><!--class Facade--><g class="entity" data-entity="Facade" data-source-line="16" data-uid="ent0003" id="entity_Facade"><rect fill="#FFEDD5" height="54.0986" rx="2.5" ry="2.5" style="stroke:#334155;stroke-width:0.5;" width="119.7617" x="120" y="129.0986"/><ellipse cx="153.3794" cy="144.0986" fill="#ADD1B2" rx="10" ry="10" style="stroke:#181818;stroke-width:1;"/><path d="M152.6607,148.4893 Q151.1294,148.4893 150.2232,147.3408 Q149.3169,146.1924 149.3169,143.7236 Q149.3169,141.6455 150.2779,140.2783 Q151.2388,138.9111 152.8794,138.9111 Q154.2544,138.9111 154.6451,139.0205 Q155.0201,139.1924 155.0201,139.1924 Q155.0201,139.1924 155.0201,139.1377 Q155.0201,139.083 155.3794,138.1611 L156.3951,141.3174 L155.1607,141.7393 Q154.7388,140.3955 154.1919,139.8486 Q153.6451,139.3018 152.7701,139.3018 Q152.6138,139.3018 151.9888,140.5596 Q151.3638,141.8174 151.3638,143.6768 Q151.3638,145.6924 151.9107,146.8408 Q152.4576,147.9893 152.7076,147.9893 Q153.5826,147.9893 154.2154,147.3643 Q154.8482,146.7393 155.1607,145.2236 L156.3951,145.8643 Q156.1138,147.0049 155.3794,147.7471 Q154.6451,148.4893 152.6607,148.4893 Z " fill="#000000"/><text fill="#000000" font-family="Arial" font-size="14" lengthAdjust="spacing" textLength="46.6963" x="170.686" y="149.4102">Facade</text><line style="stroke:#334155;stroke-width:0.5;" x1="121" x2="238.7617" y1="159.0986" y2="159.0986"/><text fill="#000000" font-family="Arial" font-size="14" lengthAdjust="spacing" textLength="107.7617" x="126" y="176.4595">+compile(source)</text></g><!--class Scanner--><g class="entity" data-entity="Scanner" data-source-line="19" data-uid="ent0004" id="entity_Scanner"><rect fill="#FFEDD5" height="30" rx="2.5" ry="2.5" style="stroke:#334155;stroke-width:0.5;" width="82.1445" x="7" y="238.0986"/><ellipse cx="21" cy="253.0986" fill="#ADD1B2" rx="10" ry="10" style="stroke:#181818;stroke-width:1;"/><path d="M20.2813,257.4893 Q18.75,257.4893 17.8438,256.3408 Q16.9375,255.1924 16.9375,252.7236 Q16.9375,250.6455 17.8984,249.2783 Q18.8594,247.9111 20.5,247.9111 Q21.875,247.9111 22.2656,248.0205 Q22.6406,248.1924 22.6406,248.1924 Q22.6406,248.1924 22.6406,248.1377 Q22.6406,248.083 23,247.1611 L24.0156,250.3174 L22.7813,250.7393 Q22.3594,249.3955 21.8125,248.8486 Q21.2656,248.3018 20.3906,248.3018 Q20.2344,248.3018 19.6094,249.5596 Q18.9844,250.8174 18.9844,252.6768 Q18.9844,254.6924 19.5313,255.8408 Q20.0781,256.9893 20.3281,256.9893 Q21.2031,256.9893 21.8359,256.3643 Q22.4688,255.7393 22.7813,254.2236 L24.0156,254.8643 Q23.7344,256.0049 23,256.7471 Q22.2656,257.4893 20.2813,257.4893 Z " fill="#000000"/><text fill="#000000" font-family="Arial" font-size="14" lengthAdjust="spacing" textLength="52.1445" x="34" y="258.4102">Scanner</text></g><!--class Parser--><g class="entity" data-entity="Parser" data-source-line="20" data-uid="ent0005" id="entity_Parser"><rect fill="#FFEDD5" height="30" rx="2.5" ry="2.5" style="stroke:#334155;stroke-width:0.5;" width="71.2344" x="144.5" y="238.0986"/><ellipse cx="158.5" cy="253.0986" fill="#ADD1B2" rx="10" ry="10" style="stroke:#181818;stroke-width:1;"/><path d="M157.7813,257.4893 Q156.25,257.4893 155.3438,256.3408 Q154.4375,255.1924 154.4375,252.7236 Q154.4375,250.6455 155.3984,249.2783 Q156.3594,247.9111 158,247.9111 Q159.375,247.9111 159.7656,248.0205 Q160.1406,248.1924 160.1406,248.1924 Q160.1406,248.1924 160.1406,248.1377 Q160.1406,248.083 160.5,247.1611 L161.5156,250.3174 L160.2813,250.7393 Q159.8594,249.3955 159.3125,248.8486 Q158.7656,248.3018 157.8906,248.3018 Q157.7344,248.3018 157.1094,249.5596 Q156.4844,250.8174 156.4844,252.6768 Q156.4844,254.6924 157.0313,255.8408 Q157.5781,256.9893 157.8281,256.9893 Q158.7031,256.9893 159.3359,256.3643 Q159.9688,255.7393 160.2813,254.2236 L161.5156,254.8643 Q161.2344,256.0049 160.5,256.7471 Q159.7656,257.4893 157.7813,257.4893 Z " fill="#000000"/><text fill="#000000" font-family="Arial" font-size="14" lengthAdjust="spacing" textLength="41.2344" x="171.5" y="258.4102">Parser</text></g><!--class Generator--><g class="entity" data-entity="Generator" data-source-line="21" data-uid="ent0006" id="entity_Generator"><rect fill="#FFEDD5" height="30" rx="2.5" ry="2.5" style="stroke:#334155;stroke-width:0.5;" width="93.0342" x="270.5" y="238.0986"/><ellipse cx="284.5" cy="253.0986" fill="#ADD1B2" rx="10" ry="10" style="stroke:#181818;stroke-width:1;"/><path d="M283.7813,257.4893 Q282.25,257.4893 281.3438,256.3408 Q280.4375,255.1924 280.4375,252.7236 Q280.4375,250.6455 281.3984,249.2783 Q282.3594,247.9111 284,247.9111 Q285.375,247.9111 285.7656,248.0205 Q286.1406,248.1924 286.1406,248.1924 Q286.1406,248.1924 286.1406,248.1377 Q286.1406,248.083 286.5,247.1611 L287.5156,250.3174 L286.2813,250.7393 Q285.8594,249.3955 285.3125,248.8486 Q284.7656,248.3018 283.8906,248.3018 Q283.7344,248.3018 283.1094,249.5596 Q282.4844,250.8174 282.4844,252.6768 Q282.4844,254.6924 283.0313,255.8408 Q283.5781,256.9893 283.8281,256.9893 Q284.7031,256.9893 285.3359,256.3643 Q285.9688,255.7393 286.2813,254.2236 L287.5156,254.8643 Q287.2344,256.0049 286.5,256.7471 Q285.7656,257.4893 283.7813,257.4893 Z " fill="#000000"/><text fill="#000000" font-family="Arial" font-size="14" lengthAdjust="spacing" textLength="63.0342" x="297.5" y="258.4102">Generator</text></g><!--link Client to Facade--><g class="link" data-entity-1="Client" data-entity-2="Facade" data-source-line="22" data-uid="lnk7" id="link_Client_Facade"><path codeLine="22" d="M180,74.1186 C180,88.4686 180,105.1086 180,122.8086" fill="none" id="Client-to-Facade" style="stroke:#334155;stroke-width:1;"/><polygon fill="#334155" points="180,128.8086,184,119.8086,180,123.8086,176,119.8086,180,128.8086" style="stroke:#334155;stroke-width:1;"/></g><!--link Facade to Scanner--><g class="link" data-entity-1="Facade" data-entity-2="Scanner" data-source-line="23" data-uid="lnk8" id="link_Facade_Scanner"><path codeLine="23" d="M143.58,183.3086 C119.01,200.9986 92.409,220.1325 72.439,234.5125" fill="none" id="Facade-to-Scanner" style="stroke:#334155;stroke-width:1;stroke-dasharray:7.0,7.0;"/><polygon fill="#334155" points="67.57,238.0186,77.2109,236.0055,71.6275,235.0969,72.5361,229.5135,67.57,238.0186" style="stroke:#334155;stroke-width:1;"/></g><!--link Facade to Parser--><g class="link" data-entity-1="Facade" data-entity-2="Parser" data-source-line="24" data-uid="lnk9" id="link_Facade_Parser"><path codeLine="24" d="M180,183.3086 C180,200.9986 180,217.6386 180,232.0186" fill="none" id="Facade-to-Parser" style="stroke:#334155;stroke-width:1;stroke-dasharray:7.0,7.0;"/><polygon fill="#334155" points="180,238.0186,184,229.0186,180,233.0186,176,229.0186,180,238.0186" style="stroke:#334155;stroke-width:1;"/></g><!--link Facade to Generator--><g class="link" data-entity-1="Facade" data-entity-2="Generator" data-source-line="25" data-uid="lnk10" id="link_Facade_Generator"><path codeLine="25" d="M217.8,183.3086 C243.3,200.9986 271.03,220.2188 291.76,234.5988" fill="none" id="Facade-to-Generator" style="stroke:#334155;stroke-width:1;stroke-dasharray:7.0,7.0;"/><polygon fill="#334155" points="296.69,238.0186,291.5749,229.6022,292.5817,235.1688,287.0151,236.1755,296.69,238.0186" style="stroke:#334155;stroke-width:1;"/></g><!--SRC=[VO_1QiCm44Jl-eg5NbfAGeCTI2y1nwbBBwMGBrXB6qTObinA9hIb_zxWg4PjGdNRcQUPNTzgsoDZ1pNAjc4tM5KwunXkgl49Fn7-WCeTjMrWZyPJuaY3tXSXiAw7G2_IsPt-87X844Lx74oed0sls14KhD5SzyU_Ypmn2sPtZ6jbMRvOBl-MRnmhul-HomEVjjiKwqy4DdG9hggYAg-0QUbZNcIRLG9PfyXJ3xysORHj50zQ4L3NXtVegAk9lGWw688A9IeIuz9G6aqsnE7imAU0U-cwNXkwzMvWINVYAo8xYTOIn-aDsK_3CvqC38x5EHHci_LFMKoUpzTJGYB5c4IPihu1]--></g></svg>